<svg width="33" height="28" viewBox="0 0 33 28" fill="none" xmlns="http://www.w3.org/2000/svg">
<path d="M8.35417 15.469H15.0833V22.4474C15.0833 22.6494 15.2427 22.8147 15.4375 22.8147H17.5625C17.7573 22.8147 17.9167 22.6494 17.9167 22.4474V15.469H24.6458C24.8406 15.469 25 15.3037 25 15.1017V12.898C25 12.696 24.8406 12.5307 24.6458 12.5307H17.9167V5.55234C17.9167 5.35034 17.7573 5.18506 17.5625 5.18506H15.4375C15.2427 5.18506 15.0833 5.35034 15.0833 5.55234V12.5307H8.35417C8.15937 12.5307 8 12.696 8 12.898V15.1017C8 15.3037 8.15937 15.469 8.35417 15.469Z" fill="#221824"/>
<path d="M31.68 0H1.32C0.589875 0 0 0.5005 0 1.12V26.88C0 27.4995 0.589875 28 1.32 28H31.68C32.4101 28 33 27.4995 33 26.88V1.12C33 0.5005 32.4101 0 31.68 0ZM30.03 25.48H2.97V2.52H30.03V25.48Z" fill="#221824"/>
</svg>
