<svg width="34" height="35" viewBox="0 0 34 35" fill="none" xmlns="http://www.w3.org/2000/svg">
<path d="M15.5833 27.7083V13.125H5.66659V27.7083H15.5833ZM15.5833 10.2083V5.83333C15.5833 5.44656 15.7325 5.07563 15.9982 4.80214C16.2639 4.52865 16.6242 4.375 16.9999 4.375H29.7499C30.1256 4.375 30.486 4.52865 30.7517 4.80214C31.0173 5.07563 31.1666 5.44656 31.1666 5.83333V29.1667C31.1666 29.5534 31.0173 29.9244 30.7517 30.1979C30.486 30.4714 30.1256 30.625 29.7499 30.625H4.24992C3.8742 30.625 3.51386 30.4714 3.24818 30.1979C2.98251 29.9244 2.83325 29.5534 2.83325 29.1667V11.6667C2.83325 11.2799 2.98251 10.909 3.24818 10.6355C3.51386 10.362 3.8742 10.2083 4.24992 10.2083H15.5833ZM18.4166 7.29167V27.7083H28.3333V7.29167H18.4166ZM7.08325 23.3333H14.1666V26.25H7.08325V23.3333ZM19.8333 23.3333H26.9166V26.25H19.8333V23.3333ZM19.8333 18.9583H26.9166V21.875H19.8333V18.9583ZM19.8333 14.5833H26.9166V17.5H19.8333V14.5833ZM7.08325 18.9583H14.1666V21.875H7.08325V18.9583Z" fill="#5A4282"/>
</svg>
