<svg width="29" height="27" viewBox="0 0 29 27" fill="none" xmlns="http://www.w3.org/2000/svg">
<path d="M10.1953 4.85156H9.96875C10.0934 4.85156 10.1953 4.75664 10.1953 4.64062V4.85156H18.8047V4.64062C18.8047 4.75664 18.9066 4.85156 19.0312 4.85156H18.8047V6.75H20.8438V4.64062C20.8438 3.70986 20.031 2.95312 19.0312 2.95312H9.96875C8.96904 2.95312 8.15625 3.70986 8.15625 4.64062V6.75H10.1953V4.85156ZM24.4688 6.75H4.53125C4.02998 6.75 3.625 7.12705 3.625 7.59375V8.4375C3.625 8.55352 3.72695 8.64844 3.85156 8.64844H5.56211L6.26162 22.4385C6.30693 23.3376 7.10557 24.0469 8.07129 24.0469H20.9287C21.8973 24.0469 22.6931 23.3402 22.7384 22.4385L23.4379 8.64844H25.1484C25.273 8.64844 25.375 8.55352 25.375 8.4375V7.59375C25.375 7.12705 24.97 6.75 24.4688 6.75ZM20.7106 22.1484H8.28936L7.604 8.64844H21.396L20.7106 22.1484Z" fill="black"/>
</svg>
