<svg width="23" height="41" viewBox="0 0 23 41" fill="none" xmlns="http://www.w3.org/2000/svg">
<circle cx="20.5" cy="5.5" r="2.5" fill="url(#paint0_radial_1_59)"/>
<circle cx="20.5" cy="20.5" r="2.5" fill="url(#paint1_radial_1_59)"/>
<circle cx="20.5" cy="35.5" r="2.5" fill="url(#paint2_radial_1_59)"/>
<path d="M10 16C7 16.8333 1 19.2 1 22C1 25.5 8 26 19.5 21" stroke="#0C0154" stroke-opacity="0.4"/>
<path d="M10 1C7 1.83333 1 4.2 1 7C1 10.5 8 11 19.5 6" stroke="#0C0154" stroke-opacity="0.4"/>
<path d="M10 31C7 31.8333 1 34.2 1 37C1 40.5 8 41 19.5 36" stroke="#0C0154" stroke-opacity="0.4"/>
<defs>
<radialGradient id="paint0_radial_1_59" cx="0" cy="0" r="1" gradientUnits="userSpaceOnUse" gradientTransform="translate(19.5 6) rotate(-26.5651) scale(3.3541)">
<stop stop-opacity="0.95"/>
<stop offset="1" stop-color="#555267" stop-opacity="0.67"/>
</radialGradient>
<radialGradient id="paint1_radial_1_59" cx="0" cy="0" r="1" gradientUnits="userSpaceOnUse" gradientTransform="translate(19.5 21) rotate(-26.5651) scale(3.3541)">
<stop stop-opacity="0.95"/>
<stop offset="1" stop-color="#555267" stop-opacity="0.67"/>
</radialGradient>
<radialGradient id="paint2_radial_1_59" cx="0" cy="0" r="1" gradientUnits="userSpaceOnUse" gradientTransform="translate(19.5 36) rotate(-26.5651) scale(3.3541)">
<stop stop-opacity="0.95"/>
<stop offset="1" stop-color="#555267" stop-opacity="0.67"/>
</radialGradient>
</defs>
</svg>
