<svg width="18" height="18" viewBox="0 0 18 18" fill="none" xmlns="http://www.w3.org/2000/svg">
<g clip-path="url(#clip0_1_184)">
<path d="M8.30544 1.97475C8.54544 1.34175 9.45368 1.34175 9.69443 1.97475L11.2469 6.27525C11.3011 6.41534 11.3965 6.53571 11.5205 6.62047C11.6445 6.70523 11.7912 6.7504 11.9414 6.75H15.7567C16.4617 6.75 16.7692 7.6275 16.2149 8.05725L13.4999 10.5C13.3783 10.5935 13.2894 10.7231 13.2461 10.8702C13.2027 11.0174 13.207 11.1745 13.2584 11.319L14.2499 15.5212C14.4914 16.1962 13.7099 16.776 13.1189 16.3605L9.43119 14.0205C9.3049 13.9317 9.15429 13.8841 8.99994 13.8841C8.84558 13.8841 8.69498 13.9317 8.56869 14.0205L4.88094 16.3605C4.29069 16.776 3.50844 16.1955 3.74994 15.5212L4.74144 11.319C4.79287 11.1745 4.7972 11.0174 4.75382 10.8702C4.71043 10.7231 4.62155 10.5935 4.49994 10.5L1.78494 8.05725C1.22994 7.6275 1.53894 6.75 2.24244 6.75H6.05769C6.2079 6.7505 6.35473 6.70538 6.47875 6.6206C6.60276 6.53583 6.69811 6.4154 6.75219 6.27525L8.30469 1.97475H8.30544Z" stroke="#5A4282" stroke-width="2" stroke-linecap="round" stroke-linejoin="round"/>
</g>
<defs>
<clipPath id="clip0_1_184">
<rect width="18" height="18" fill="white"/>
</clipPath>
</defs>
</svg>
