<svg width="617" height="709" viewBox="0 0 617 709" fill="none" xmlns="http://www.w3.org/2000/svg">
<g filter="url(#filter0_d_1_165)">
<mask id="path-1-inside-1_1_165" fill="white">
<path d="M15 11H577C590.807 11 602 22.1929 602 36V665C602 678.807 590.807 690 577 690H15V11Z"/>
</mask>
<path d="M15 11H577C590.807 11 602 22.1929 602 36V665C602 678.807 590.807 690 577 690H15V11Z" fill="url(#paint0_linear_1_165)"/>
<path d="M15 11H602H15ZM602 690H15H602ZM-15 690V11H45V690H-15ZM602 11V690V11Z" fill="#060317" mask="url(#path-1-inside-1_1_165)"/>
</g>
<defs>
<filter id="filter0_d_1_165" x="0" y="0" width="617" height="709" filterUnits="userSpaceOnUse" color-interpolation-filters="sRGB">
<feFlood flood-opacity="0" result="BackgroundImageFix"/>
<feColorMatrix in="SourceAlpha" type="matrix" values="0 0 0 0 0 0 0 0 0 0 0 0 0 0 0 0 0 0 127 0" result="hardAlpha"/>
<feMorphology radius="5" operator="dilate" in="SourceAlpha" result="effect1_dropShadow_1_165"/>
<feOffset dy="4"/>
<feGaussianBlur stdDeviation="5"/>
<feComposite in2="hardAlpha" operator="out"/>
<feColorMatrix type="matrix" values="0 0 0 0 0 0 0 0 0 0 0 0 0 0 0 0 0 0 0.13 0"/>
<feBlend mode="normal" in2="BackgroundImageFix" result="effect1_dropShadow_1_165"/>
<feBlend mode="normal" in="SourceGraphic" in2="effect1_dropShadow_1_165" result="shape"/>
</filter>
<linearGradient id="paint0_linear_1_165" x1="14.815" y1="48.8687" x2="498.308" y2="718.228" gradientUnits="userSpaceOnUse">
<stop stop-color="#4D34F3"/>
<stop offset="1" stop-color="#8D7BFF"/>
</linearGradient>
</defs>
</svg>
