<svg width="26" height="26" viewBox="0 0 26 26" fill="none" xmlns="http://www.w3.org/2000/svg">
<path d="M11.9198 2.07175C12.2931 1.08709 13.7059 1.08709 14.0804 2.07175L16.4954 8.76142C16.5797 8.97934 16.728 9.16658 16.9209 9.29843C17.1138 9.43028 17.3421 9.50053 17.5758 9.49992H23.5106C24.6073 9.49992 25.0856 10.8649 24.2234 11.5334L20.0001 15.3333C19.8109 15.4787 19.6727 15.6803 19.6052 15.9092C19.5377 16.1381 19.5444 16.3824 19.6244 16.6073L21.1668 23.1441C21.5424 24.1941 20.3268 25.0959 19.4074 24.4496L13.6709 20.8096C13.4745 20.6715 13.2402 20.5974 13.0001 20.5974C12.76 20.5974 12.5257 20.6715 12.3293 20.8096L6.59276 24.4496C5.67459 25.0959 4.45776 24.1929 4.83342 23.1441L6.37576 16.6073C6.45576 16.3824 6.46251 16.1381 6.39502 15.9092C6.32753 15.6803 6.18927 15.4787 6.00009 15.3333L1.77676 11.5334C0.913423 10.8649 1.39409 9.49992 2.48842 9.49992H8.42326C8.65693 9.5007 8.88533 9.43051 9.07824 9.29864C9.27115 9.16676 9.41948 8.97943 9.50359 8.76142L11.9186 2.07175H11.9198Z" stroke="#F7F2FF" stroke-width="2" stroke-linecap="round" stroke-linejoin="round"/>
</svg>
