<svg width="44" height="47" viewBox="0 0 44 47" fill="none" xmlns="http://www.w3.org/2000/svg">
<g filter="url(#filter0_d_120_2)">
<rect x="3" y="3" width="36" height="39" fill="white"/>
</g>
<path d="M31 32L26.514 27.506M29 21.5C29 23.7543 28.1045 25.9163 26.5104 27.5104C24.9163 29.1045 22.7543 30 20.5 30C18.2457 30 16.0837 29.1045 14.4896 27.5104C12.8955 25.9163 12 23.7543 12 21.5C12 19.2457 12.8955 17.0837 14.4896 15.4896C16.0837 13.8955 18.2457 13 20.5 13C22.7543 13 24.9163 13.8955 26.5104 15.4896C28.1045 17.0837 29 19.2457 29 21.5V21.5Z" stroke="#5A4282" stroke-width="2" stroke-linecap="round"/>
<defs>
<filter id="filter0_d_120_2" x="0" y="0" width="44" height="47" filterUnits="userSpaceOnUse" color-interpolation-filters="sRGB">
<feFlood flood-opacity="0" result="BackgroundImageFix"/>
<feColorMatrix in="SourceAlpha" type="matrix" values="0 0 0 0 0 0 0 0 0 0 0 0 0 0 0 0 0 0 127 0" result="hardAlpha"/>
<feOffset dx="1" dy="1"/>
<feGaussianBlur stdDeviation="2"/>
<feComposite in2="hardAlpha" operator="out"/>
<feColorMatrix type="matrix" values="0 0 0 0 0 0 0 0 0 0 0 0 0 0 0 0 0 0 0.12 0"/>
<feBlend mode="normal" in2="BackgroundImageFix" result="effect1_dropShadow_120_2"/>
<feBlend mode="normal" in="SourceGraphic" in2="effect1_dropShadow_120_2" result="shape"/>
</filter>
</defs>
</svg>
