<svg width="22" height="21" viewBox="0 0 22 21" fill="none" xmlns="http://www.w3.org/2000/svg">
<path d="M2.49001 7.24127L7.94489 6.48453L10.3834 1.76568C10.45 1.63648 10.5595 1.53189 10.6949 1.46832C11.0343 1.30836 11.4468 1.44166 11.6166 1.76568L14.0551 6.48453L19.5099 7.24127C19.6603 7.26178 19.7978 7.32945 19.9031 7.43199C20.0304 7.55685 20.1005 7.72484 20.0981 7.89904C20.0957 8.07324 20.0209 8.23939 19.8902 8.36099L15.9435 12.0339L16.876 17.2204C16.8978 17.341 16.8838 17.4651 16.8356 17.5785C16.7873 17.692 16.7067 17.7903 16.603 17.8622C16.4992 17.9342 16.3763 17.9769 16.2484 17.9856C16.1204 17.9943 15.9925 17.9687 15.8791 17.9115L11 15.4628L6.12087 17.9115C5.98767 17.9792 5.83298 18.0017 5.68474 17.9771C5.31091 17.9156 5.05954 17.5772 5.124 17.2204L6.05642 12.0339L2.10974 8.36099C2.00232 8.26051 1.93142 8.12926 1.90993 7.9857C1.85193 7.62681 2.11404 7.29459 2.49001 7.24127Z" fill="#FFC700"/>
</svg>
